<svg height="512" viewBox="0 0 64 64" width="512" xmlns="http://www.w3.org/2000/svg"><g id="Payment-Credit_Card-Money-Shopping_Cart-Paper" data-name="Payment-Credit Card-Money-Shopping Cart-Paper"><path d="m61 8v48a5 5 0 1 1 -5-5h-33v-38h33a5 5 0 1 1 5-5z" fill="#e6e7e8"/><path d="m60 39h-2a1 1 0 0 0 -1-1h-13a1 1 0 0 1 -1-1v-13.586l-1.414-1.414h-2.586v-2h3a1 1 0 0 1 .707.293l2 2a1 1 0 0 1 .293.707v13h12a3 3 0 0 1 3 3z" fill="#d8d7da"/><path d="m41 35v16h-18v-18h16a2.006 2.006 0 0 1 2 2z" fill="#d8d7da"/><rect fill="#00ccb3" height="20" rx="2" width="30" x="9" y="31"/><path d="m56 13h-33a4.712 4.712 0 0 1 -1-.1 5 5 0 0 1 -3.67-3.11 5.078 5.078 0 0 1 -.33-1.79 5 5 0 0 1 5-5h33a5 5 0 0 0 0 10z" fill="#d1d3d4"/><path d="m37 51h19a5 5 0 0 0 0 10h-33a5 5 0 0 1 0-10z" fill="#d1d3d4"/><path d="m52 25h-4-4v4 4h4 4 4l.5-4 .5-4z" fill="#d8d7da"/><circle cx="53" cy="40" fill="#d8d7da" r="2"/><circle cx="45" cy="40" fill="#d8d7da" r="2"/><path d="m55 23-.5 4h-4.5v-4z" fill="#ebbf00"/><path d="m54.5 27-.5 4h-4v-4z" fill="#ffde55"/><circle cx="51" cy="38" fill="#57565c" r="2"/><path d="m46 27h4v4h-4z" fill="#ebbf00"/><path d="m46 23h4v4h-4z" fill="#ffde55"/><path d="m42 27h4v4h-4z" fill="#ffde55"/><path d="m42 23h4v4h-4z" fill="#ebbf00"/><circle cx="43" cy="38" fill="#57565c" r="2"/><path d="m33 43a2 2 0 0 1 0 4h-3a2 2 0 0 1 0-4z" fill="#ff9811"/><path d="m17 35h4v6h-4z" fill="#ff9811"/><path d="m13 35h4v6h-4z" fill="#ee8700"/><path d="m20.14 46.75a1.861 1.861 0 0 1 -.07.52l-1 3.73-.87 3.24a6.216 6.216 0 0 0 -.2 1.55v2.21l-3 4h-11v-2l-.7-2.81a9.842 9.842 0 0 1 -.3-2.42v-10.77a6 6 0 0 1 6-6v9l2.4 4 .03.05a1.96 1.96 0 0 0 1.68.96h.02a1.964 1.964 0 0 0 1.73-1.01 1.859 1.859 0 0 0 .19-.46l1.16-4.3a2.033 2.033 0 0 1 .97-1.24 1.981 1.981 0 0 1 1.48-.18 2 2 0 0 1 1.48 1.93z" fill="#ffc477"/><path d="m33 20a9 9 0 0 1 -9 9 8.262 8.262 0 0 1 -1-.06v-15.94h6.64a8.945 8.945 0 0 1 3.36 7z" fill="#d8d7da"/><circle cx="22" cy="18" fill="#ffd422" r="9"/><g fill="#00b39d"><path d="m34 34h2v2h-2z"/><path d="m30 34h2v2h-2z"/><path d="m26 34h2v2h-2z"/><path d="m12 44h2v2h-2z"/><path d="m26 38h10v2h-10z"/></g><path d="m58 37h-2a1 1 0 0 0 -1-1h-13a1 1 0 0 1 -1-1v-13.586l-1.414-1.414h-2.586v-2h3a1 1 0 0 1 .707.293l2 2a1 1 0 0 1 .293.707v13h12a3 3 0 0 1 3 3z" fill="#c6c5ca"/><path d="m23 17h-2a1 1 0 0 1 0-2h2a1 1 0 0 1 1 1h2a3 3 0 0 0 -3-3v-1h-2v1a3 3 0 0 0 0 6h2a1 1 0 0 1 0 2h-2a1 1 0 0 1 -1-1h-2a3 3 0 0 0 3 3v1h2v-1a3 3 0 0 0 0-6z" fill="#ed1c24"/></g></svg>